<svg width="801" height="801" viewBox="0 0 801 801" fill="none" xmlns="http://www.w3.org/2000/svg">
  <rect width="800" height="800" transform="translate(0.65271 0.5)" fill="#D3CEBC"/>
  <path d="M275.347 339C295.753 343.966 306.142 347.776 326.347 356.5C382.347 324 435.847 374.5 415.347 419L448.847 444.5C453.801 437.409 455.802 433.034 457.847 424.5C499.164 447.669 521.936 453.5 561.847 451C579.129 437.3 585.517 427.849 591.347 408C566.847 413 526.847 411.431 493.847 395.5C450.347 374.5 452.847 339 407.347 314.5C346.347 287.974 299.347 317.718 275.347 339Z" fill="#4B2E11"/>
  <path d="M219.347 431.5C233.347 518 307.347 546.734 377.347 512.5C357.347 495.5 338.347 481.5 338.347 481.5C297.264 490.157 269.347 472.5 261.347 433C244.141 427.921 234.977 427.769 219.347 431.5Z" fill="#4B2E11"/>
  <path d="M139.847 359.5L182.847 342C258.847 110 571.347 140 607.347 376.5L642.347 357C616.847 223 506.347 146.5 398.347 143C250.347 146 161.847 246 139.847 359.5Z" fill="#4B2E11"/>
  <path d="M173.847 442L144.347 470.5C144.347 470.5 184.347 641.887 369.347 659C575.347 667.5 630.347 497.5 630.347 497.5C612.362 515.398 599.5 521.5 579.847 528C478.847 672.5 219.847 661.5 173.847 442Z" fill="#B18758"/>
  <path d="M92.8473 478.5C61.3473 498.5 49.8473 456.5 66.8473 445C92.4807 421.005 107.203 409.846 135.847 390.5C172.847 370 195.264 364.069 233.847 361.5C280.847 364 312.429 376.075 357.847 409.5C427.555 468.31 459.171 484.478 501.847 482.5C555.914 481.669 600.347 448 608.347 405C651.213 388.88 665.676 382.706 704.347 350C724.347 327 761.347 357.5 730.847 382.5C698.844 408.083 679.847 420.5 641.847 437.5C612.847 494.5 557.347 523 501.847 526.5C449.847 522.5 424.347 515 337.847 446.5C301.279 416.92 281.847 405 233.847 403.5C178.347 403.5 138.347 434.5 92.8473 478.5Z" fill="#4B2E11"/>
</svg>
